<svg xmlns="http://www.w3.org/2000/svg" viewBox="0 0 256 256" enable-background="new 0 0 256 256"><style type="text/css">.st0{fill:#4F9AD4;}</style><path class="st0" d="M40.1 109.8s-1.8-4.4-1.8-9.9l1.8-9.9c-.3 0-37.4 9.9-37.4 9.9s37.1 9.9 37.4 9.9zM215.9 90s1.8 4.4 1.8 9.9l-1.8 9.9c.3 0 37.4-9.9 37.4-9.9s-37.2-9.9-37.4-9.9z"/><circle class="st0" cx="89.6" cy="99.3" r="11.2"/><path class="st0" d="M196.5 85.5c1.4 0 2.6 1.2 2.6 2.6v23.6c0 1.4-1.2 2.6-2.6 2.6h-137c-1.4 0-2.6-1.2-2.6-2.6v-23.6c0-1.4 1.2-2.6 2.6-2.6h137m0-13.4h-137c-8.9 0-16.1 7.2-16.1 16.1v23.6c0 8.9 7.2 16 16.1 16h136.9c8.9 0 16.1-7.2 16.1-16v-23.7c0-8.9-7.2-16-16-16zM127 168.1c-20.3 0-37.4 30.6-37.4 66.9 0 4.1.2 8.2.7 12.1 10.4 3.3 23.1 5.2 36.8 5.2s26.4-1.9 36.8-5.2c.4-3.9.7-8 .7-12.1-.2-36.2-17.3-66.9-37.6-66.9zm-22.6 65.3c0 2.4-2 4.4-4.4 4.4-2.4 0-4.4-2-4.4-4.4v-15.4c0-2.4 2-4.4 4.4-4.4 2.4 0 4.4 2 4.4 4.4v15.4zm17.8 0c0 2.4-2 4.4-4.4 4.4s-4.4-2-4.4-4.4v-15.4c0-2.4 2-4.4 4.4-4.4 2.4 0 4.4 2 4.4 4.4v15.4zm17.8 0c0 2.4-2 4.4-4.4 4.4-2.4 0-4.4-2-4.4-4.4v-15.4c0-2.4 2-4.4 4.4-4.4s4.4 2 4.4 4.4v15.4zm17.8 0c0 2.4-2 4.4-4.4 4.4-2.4 0-4.4-2-4.4-4.4v-15.4c0-2.4 2-4.4 4.4-4.4 2.4 0 4.4 2 4.4 4.4v15.4zM63.2 116.3v11.5h92.4c1.7 0 3.1 1.4 3.1 3.1 0 1.7-1.4 3.1-3.1 3.1h-92.4v90c0 7.7 6.8 14.6 17.8 19.7-.2-2.8-.3-5.7-.3-8.6 0-42.5 20.3-75.7 46.3-75.7 25.9 0 46.3 33.3 46.3 75.7 0 2.9-.1 5.8-.3 8.6 11-5.1 17.8-12 17.8-19.7v-107.7h-127.6zM127 58.4c-2.2 0-4-1.8-4-4s1.8-4 4-4h63.2c-.7-2.2-1.6-4.4-2.5-6.5h-37.6c-3.7 0-6.7-3-6.7-6.7s3-6.7 6.7-6.7h29.9c-12.2-16.4-31.4-26.8-53-26.8-33.9-.1-61.9 25.3-66.1 59.8h132.3c-.2-1.7-.5-3.4-.9-5.1h-65.3zm4.6-28.3c3.9 0 7 3.1 7 7s-3.1 7-7 7-7-3.1-7-7 3.2-7 7-7z"/></svg>